<?xml version="1.0" encoding="utf-8"?>
<!-- Generator: Adobe Illustrator 15.0.0, SVG Export Plug-In . SVG Version: 6.00 Build 0)  -->
<!DOCTYPE svg PUBLIC "-//W3C//DTD SVG 1.1//EN" "http://www.w3.org/Graphics/SVG/1.1/DTD/svg11.dtd">
<svg version="1.1" id="Layer_1" xmlns="http://www.w3.org/2000/svg" xmlns:xlink="http://www.w3.org/1999/xlink" x="0px" y="0px"
	 width="180px" height="180px" viewBox="0 0 180 180" enable-background="new 0 0 180 180" xml:space="preserve">
<g>
	<defs>
		<rect id="SVGID_1_" width="180" height="180"/>
	</defs>
	<clipPath id="SVGID_2_">
		<use xlink:href="#SVGID_1_"  overflow="visible"/>
	</clipPath>
	<g clip-path="url(#SVGID_2_)">
		<g>
			<path fill="none" stroke="#232323" stroke-linejoin="round" stroke-miterlimit="10" d="M123.209,199.211
				c-5.484,5.839-18.327,9.939-33.293,9.939c-14.368,0-26.776-3.777-32.599-9.246"/>
			<path fill="none" stroke="#232323" stroke-linejoin="round" stroke-miterlimit="10" d="M50.715,142.806
				c1.787,8.111,11.42,27.532,11.42,37.169c0,0,0.211,9.814-4.555,21.395c-1.599,3.886-18.857,29.079-13.187,70.881
				c0.951,7.02,7.564,38.098,8.871,61.705c2.177,39.348,0.792,100.761-22.071,148.494c0,0-5.619,8.655,1.175,14.423l6.358,6.122
				c0,0-0.084,3.65,2.288,5.42c2.374,1.771,23.486,11.918,23.486,11.918v3.168h32.52h19.48v-3.168c0,0,21.333-10.147,23.707-11.918
				c2.374-1.77,2.443-5.42,2.443-5.42l6.429-6.122c6.794-5.768,0.758-14.372,0.758-14.372l-0.005-0.051
				c-22.861-47.733-22.063-148.494-22.063-148.494c1.306-23.607,7.921-54.686,8.875-61.705c5.668-41.802-11.589-66.995-13.19-70.881
				"/>
		</g>
		<path fill="none" stroke="#232323" stroke-linejoin="round" stroke-miterlimit="10" d="M68.831,37.816
			c-0.569,7.096,1.942,19.075,16.158,29.825c2.073,1.565,8.645,1.565,10.715,0c14.218-10.75,16.729-22.729,16.157-29.825
			c0,0-0.33-4.225-1.278-6.192"/>
		<path fill="none" stroke="#232323" stroke-miterlimit="10" d="M69.07,45.789l-0.891-1.251c-4.848-4.373-3.361-8.37-2.108-10.378
			c0.526-0.846,2.465-1.893,3.11-2.198C82.968,25.409,81.61,19.365,81.61,19.365s10.089,11.087,31.592,12.851l0.907,0.519
			c0,0,1.963-27.234-23.81-27.234h-0.401C64.126,5.5,64.5,32.763,64.5,32.763V50"/>
		<line fill="none" stroke="#232323" stroke-linejoin="round" stroke-miterlimit="10" x1="114.5" y1="84" x2="114.5" y2="41"/>
		<line fill="none" stroke="#232323" stroke-linejoin="round" stroke-miterlimit="10" x1="64.5" y1="39" x2="64.5" y2="84"/>
		<path fill="none" stroke="#232323" stroke-linejoin="round" stroke-miterlimit="10" d="M112.975,32.07
			c1.278,1.741,2.036,3.898,2.036,6.234c0,3.534-1.733,6.658-4.39,8.552"/>
		<path fill="none" stroke="#232323" stroke-linejoin="round" stroke-miterlimit="10" d="M90.756,129.051l-1.256-11.43v-0.022
			c-16-0.657-29.913-14.347-29.913-31.14"/>
		<path fill="none" stroke="#232323" stroke-linejoin="round" stroke-miterlimit="10" d="M90.754,129.051l1.253-11.43l-0.003-0.022
			c16.631-0.657,29.913-14.347,29.913-31.14"/>
		<path fill="none" stroke="#232323" stroke-linejoin="round" stroke-miterlimit="10" d="M38.624,120.652
			c0,0,3.658,29.99,4.31,35.566c1.289,11.029,2.892,28.663,1.025,35.883c-2.811,10.871-3.66,21.193-3.518,30.086
			c0,0,0.066,22.772-1.687,36.373c-0.628,4.885-6.227,11.053-6.227,11.053l7.163,13.921l7.43,0.524"/>
		<path fill="none" stroke="#232323" stroke-linejoin="round" stroke-miterlimit="10" d="M78.5,61v12.154
			c0,9.472-9.363,10.786-9.363,10.786c-16.381,3.447-25.203,9.46-29.073,25.515c-0.289,1.211-2.52,10.31-2.52,10.31l16.324,6.459"/>
		<line fill="none" stroke="#232323" stroke-linejoin="round" stroke-miterlimit="10" x1="59" y1="165.5" x2="123" y2="165.5"/>
		<path fill="none" stroke="#232323" stroke-linejoin="round" stroke-miterlimit="10" d="M59.653,195.455"/>
		<path fill="none" stroke="#232323" stroke-linejoin="round" stroke-miterlimit="10" d="M55.18,206.361"/>
		<path fill="none" stroke="#232323" stroke-linejoin="round" stroke-miterlimit="10" d="M141.566,120.652
			c0,0-3.654,29.99-4.307,35.566c-1.288,11.029-2.891,28.663-1.027,35.883c2.811,10.871,3.662,21.193,3.516,30.086
			c0,0-0.061,22.772,1.692,36.373c0.628,4.885,6.226,11.053,6.226,11.053l-7.163,13.921l-7.43,0.524"/>
		<path fill="none" stroke="#232323" stroke-linejoin="round" stroke-miterlimit="10" d="M126.331,126.125"/>
		<path fill="none" stroke="#232323" stroke-linejoin="round" stroke-miterlimit="10" d="M68.37,155.508
			c-10.285,0-18.624-8.338-18.624-18.623c0-3.135,0.775-6.088,2.141-8.682c0.738-1.394,1.647-2.688,2.7-3.844"/>
		<path fill="none" stroke="#232323" stroke-linejoin="round" stroke-miterlimit="10" d="M112.844,155.508
			c10.285,0,18.626-8.338,18.626-18.623c0-3.135-0.774-6.088-2.143-8.682c-0.735-1.394-1.646-2.688-2.699-3.844"/>
		<path fill="none" stroke="#232323" stroke-linejoin="round" stroke-miterlimit="10" d="M103.5,61v12.154
			c0,9.472,8.424,10.786,8.424,10.786c16.379,3.447,24.727,9.46,28.597,25.515c0.29,1.211,2.286,10.31,2.286,10.31l-15.502,6.459"/>
		<path fill="none" stroke="#232323" stroke-linejoin="round" stroke-miterlimit="10" d="M56.413,203.678
			c1.365-8.149,2.476-20.4,1.311-26.281c-0.45-2.262-1.007-10.834-1.007-17.584"/>
		<g>
			<path fill="none" stroke="#232323" stroke-linejoin="round" stroke-miterlimit="10" d="M130.635,142.806
				c-1.787,8.111-11.422,27.532-11.422,37.169c0,0-0.212,9.814,4.553,21.395"/>
			<path fill="none" stroke="#232323" stroke-linejoin="round" stroke-miterlimit="10" d="M124.936,203.678
				c-1.365-8.149-2.475-20.4-1.31-26.281c0.446-2.262,1.006-10.834,1.006-17.584"/>
		</g>
	</g>
</g>
</svg>
