<?xml version="1.0" encoding="utf-8"?>
<!-- Generator: Adobe Illustrator 15.0.0, SVG Export Plug-In . SVG Version: 6.00 Build 0)  -->
<!DOCTYPE svg PUBLIC "-//W3C//DTD SVG 1.1//EN" "http://www.w3.org/Graphics/SVG/1.1/DTD/svg11.dtd">
<svg version="1.1" id="Layer_1" xmlns="http://www.w3.org/2000/svg" xmlns:xlink="http://www.w3.org/1999/xlink" x="0px" y="0px"
	 width="100px" height="420px" viewBox="0 0 100 420" enable-background="new 0 0 100 420" xml:space="preserve">
<g>
	<g>
		<path fill="none" stroke="#232323" stroke-linejoin="round" stroke-miterlimit="10" d="M76.824,156.459
			c-4.446,4.735-14.859,8.059-26.995,8.059c-11.649,0-21.712-3.063-26.433-7.497"/>
		<path fill="none" stroke="#232323" stroke-linejoin="round" stroke-miterlimit="10" d="M18.043,110.724
			c1.449,6.577,9.26,22.324,9.26,30.138c0,0,0.172,7.958-3.691,17.347c-1.298,3.151-15.292,23.58-10.694,57.475
			c0.771,5.691,6.134,30.892,7.193,50.034c1.765,31.905,0.643,81.701-17.896,120.406c0,0-4.557,7.018,0.951,11.693l5.156,4.965
			c0,0-0.429,2.96,1.496,4.396c1.926,1.435,18.682,9.664,18.682,9.664v2.659h27.088H70.5v-2.659c0,0,17.741-8.229,19.666-9.664
			c1.925-1.436,2.201-4.396,2.201-4.396l5.323-4.965c5.509-4.676,0.671-11.652,0.671-11.652l0.025-0.041
			c-18.538-38.705-17.878-120.406-17.878-120.406c1.059-19.143,6.431-44.343,7.202-50.034c4.598-33.895-9.393-54.323-10.69-57.475"
			/>
	</g>
	<path fill="none" stroke="#232323" stroke-linejoin="round" stroke-miterlimit="10" d="M32.733,25.592
		c-0.462,5.754,1.574,15.469,13.102,24.185c1.68,1.269,7.009,1.269,8.688,0c11.527-8.716,13.564-18.431,13.102-24.185
		c0,0-0.27-3.425-1.038-5.021"/>
	<path fill="none" stroke="#232323" stroke-miterlimit="10" d="M32.566,32.321l-0.541-1.146c-3.93-3.547-2.636-6.851-1.62-8.481
		c0.427-0.686,2.043-1.568,2.566-1.816c11.181-5.313,10.102-10.229,10.102-10.229s8.192,8.98,25.626,10.41l0.742,0.973
		c0,0,1.598-20.531-19.301-21.531h-0.324C28.918,1.5,28.5,21.495,28.5,21.495V36"/>
	<line fill="none" stroke="#232323" stroke-linejoin="round" stroke-miterlimit="10" x1="68.5" y1="64" x2="68.5" y2="30"/>
	<line fill="none" stroke="#232323" stroke-linejoin="round" stroke-miterlimit="10" x1="28.5" y1="27" x2="28.5" y2="64"/>
	<path fill="none" stroke="#232323" stroke-linejoin="round" stroke-miterlimit="10" d="M68.525,20.934
		c1.037,1.412,1.652,3.16,1.652,5.056c0,2.863-1.405,5.397-3.559,6.933"/>
	<path fill="none" stroke="#232323" stroke-linejoin="round" stroke-miterlimit="10" d="M76.824,64.397
		c-4.446,18.167-14.859,30.916-26.995,30.916c-11.649,0-21.712-11.748-26.433-28.759"/>
	<path fill="none" stroke="#232323" stroke-linejoin="round" stroke-miterlimit="10" d="M8.24,92.759c0,0,2.965,24.319,3.493,28.84
		c1.044,8.942,2.346,23.241,0.833,29.096c-2.279,8.814-2.969,17.186-2.854,24.396c0,0,0.053,18.465-1.368,29.493
		c-0.511,3.959-5.049,8.962-5.049,8.962l5.808,11.287l6.023,0.425"/>
	<path fill="none" stroke="#232323" stroke-linejoin="round" stroke-miterlimit="10" d="M38.5,45v9.246
		c0,7.68-6.557,8.746-6.557,8.746c-13.281,2.795-19.915,7.67-23.053,20.689c-0.236,0.979-1.784,8.359-1.784,8.359l12.328,5.541"/>
	<line fill="none" stroke="#232323" stroke-linejoin="round" stroke-miterlimit="10" x1="24" y1="129.5" x2="76" y2="129.5"/>
	<path fill="none" stroke="#232323" stroke-linejoin="round" stroke-miterlimit="10" d="M25.292,153.413"/>
	<path fill="none" stroke="#232323" stroke-linejoin="round" stroke-miterlimit="10" d="M21.664,162.256"/>
	<line fill="none" stroke="#232323" stroke-linejoin="round" stroke-miterlimit="10" x1="49.5" y1="129" x2="49.5" y2="96"/>
	<path fill="none" stroke="#232323" stroke-linejoin="round" stroke-miterlimit="10" d="M91.711,92.759
		c0,0-2.965,24.319-3.492,28.84c-1.045,8.942-2.346,23.241-0.833,29.096c2.279,8.814,2.969,17.186,2.853,24.396
		c0,0-0.052,18.465,1.368,29.493c0.511,3.959,5.05,8.962,5.05,8.962l-5.809,11.287l-6.023,0.425"/>
	<path fill="none" stroke="#232323" stroke-linejoin="round" stroke-miterlimit="10" d="M79.355,97.197"/>
	<path fill="none" stroke="#232323" stroke-linejoin="round" stroke-miterlimit="10" d="M32.359,121.022
		c-8.34,0-15.102-6.762-15.102-15.102c0-2.541,0.629-4.936,1.736-7.037c0.598-1.133,1.336-2.181,2.189-3.119"/>
	<path fill="none" stroke="#232323" stroke-linejoin="round" stroke-miterlimit="10" d="M68.421,121.022
		c8.34,0,15.103-6.762,15.103-15.102c0-2.541-0.629-4.936-1.736-7.037c-0.598-1.133-1.336-2.181-2.189-3.119"/>
	<path fill="none" stroke="#232323" stroke-linejoin="round" stroke-miterlimit="10" d="M59.5,45v9.246
		c0,7.68,7.502,8.746,7.502,8.746c13.281,2.795,20.387,7.67,23.525,20.689c0.234,0.979,2.021,8.359,2.021,8.359l-13.156,5.541"/>
	<path fill="none" stroke="#232323" stroke-linejoin="round" stroke-miterlimit="10" d="M22.664,160.08
		c1.106-6.608,2.006-16.54,1.062-21.311c-0.362-1.832-0.815-8.784-0.815-14.257"/>
	<g>
		<path fill="none" stroke="#232323" stroke-linejoin="round" stroke-miterlimit="10" d="M82.846,110.724
			c-1.449,6.577-9.26,22.324-9.26,30.138c0,0-0.172,7.958,3.691,17.347"/>
		<path fill="none" stroke="#232323" stroke-linejoin="round" stroke-miterlimit="10" d="M78.225,160.08
			c-1.106-6.608-2.007-16.54-1.062-21.311c0.362-1.832,0.815-8.784,0.815-14.257"/>
	</g>
</g>
</svg>
